HIERARCHY
ROOT Hips
{
	OFFSET -0.001795 -0.223333 0.028219
	CHANNELS 6 Xposition Yposition Zposition Zrotation Yrotation Xrotation 
	JOINT LeftUpLeg
	{
		OFFSET 0.069520 -0.091406 -0.006815
		CHANNELS 3 Zrotation Yrotation Xrotation
		JOINT LeftLeg
		{
			OFFSET 0.034277 -0.375199 -0.004496
			CHANNELS 3 Zrotation Yrotation Xrotation
			JOINT LeftFoot
			{
				OFFSET -0.013596 -0.397961 -0.043693
				CHANNELS 3 Zrotation Yrotation Xrotation
				JOINT LeftToe
				{
					OFFSET 0.026358 -0.055791 0.119288
					CHANNELS 3 Zrotation Yrotation Xrotation
					End Site
					{
						OFFSET 0.000000 0.000000 0.000000
					}
				}
			}
		}
	}
	JOINT RightUpLeg
	{
		OFFSET -0.067670 -0.090522 -0.004320
		CHANNELS 3 Zrotation Yrotation Xrotation
		JOINT RightLeg
		{
			OFFSET -0.038290 -0.382569 -0.008850
			CHANNELS 3 Zrotation Yrotation Xrotation
			JOINT RightFoot
			{
				OFFSET 0.015774 -0.398415 -0.042312
				CHANNELS 3 Zrotation Yrotation Xrotation
				JOINT RightToe
				{
					OFFSET -0.025372 -0.048144 0.123348
					CHANNELS 3 Zrotation Yrotation Xrotation
					End Site
					{
						OFFSET 0.000000 0.000000 0.000000
					}
				}
			}
		}
	}
	JOINT Spine
	{
		OFFSET -0.002533 0.108963 -0.026696
		CHANNELS 3 Zrotation Yrotation Xrotation
		JOINT Spine1
		{
			OFFSET 0.005487 0.135180 0.001092
			CHANNELS 3 Zrotation Yrotation Xrotation
			JOINT Spine2
			{
				OFFSET 0.001457 0.052922 0.025425
				CHANNELS 3 Zrotation Yrotation Xrotation
				JOINT Neck
				{
					OFFSET -0.002778 0.213870 -0.042857
					CHANNELS 3 Zrotation Yrotation Xrotation
					JOINT Head
					{
						OFFSET 0.005152 0.064970 0.051349
						CHANNELS 3 Zrotation Yrotation Xrotation
						End Site
						{
							OFFSET 0.000000 0.000000 0.000000
						}
					}
				}
				JOINT LeftShoulder
				{
					OFFSET 0.078845 0.121749 -0.034090
					CHANNELS 3 Zrotation Yrotation Xrotation
					JOINT LeftArm
					{
						OFFSET 0.090977 0.030469 -0.008868
						CHANNELS 3 Zrotation Yrotation Xrotation
						JOINT LeftForeArm
						{
							OFFSET 0.259612 -0.012772 -0.027456
							CHANNELS 3 Zrotation Yrotation Xrotation
							JOINT LeftHand
							{
								OFFSET 0.249234 0.008986 -0.001171
								CHANNELS 3 Zrotation Yrotation Xrotation
								End Site
								{
									OFFSET 0.000000 0.000000 0.000000
								}
							}
						}
					}
				}
				JOINT RightShoulder
				{
					OFFSET -0.081759 0.118833 -0.038615
					CHANNELS 3 Zrotation Yrotation Xrotation
					JOINT RightArm
					{
						OFFSET -0.096012 0.032551 -0.009143
						CHANNELS 3 Zrotation Yrotation Xrotation
						JOINT RightForeArm
						{
							OFFSET -0.253742 -0.013329 -0.021401
							CHANNELS 3 Zrotation Yrotation Xrotation
							JOINT RightHand
							{
								OFFSET -0.255298 0.007772 -0.005559
								CHANNELS 3 Zrotation Yrotation Xrotation
								End Site
								{
									OFFSET 0.000000 0.000000 0.000000
								}
							}
						}
					}
				}
			}
		}
	}
}
MOTION
Frames: 5
Frame Time: 0.050000
0.013283 0.964264 0.005109 -2.894439 -3.318238 8.125188 5.596520 -0.283370 -3.659893 -3.256792 0.421755 -7.577295 2.875379 9.422635 14.779991 0.000000 0.000000 0.000000 -0.201428 0.662781 -6.589935 0.794395 -0.217953 -4.383106 1.153698 -4.495500 15.276304 0.000000 0.000000 0.000000 -0.810417 0.108231 -2.065355 3.396494 0.292685 -32.499111 -1.931445 -1.849798 27.978944 5.610410 -2.674492 -22.690213 0.000000 0.000000 0.000000 -12.481359 0.511731 -0.244758 -50.726847 -11.382086 -3.423391 -36.889461 -24.677518 10.310539 0.000000 0.000000 0.000000 -14.666882 3.786941 1.836520 -18.279305 52.986002 -13.270604 -104.075598 -1.800174 2.531924 0.000000 0.000000 0.000000 
0.013493 0.964527 0.004965 -2.925459 -3.462517 7.968035 5.599456 -0.277031 -3.596581 -3.376088 0.428771 -7.522466 3.176938 9.909547 15.006425 0.000000 0.000000 0.000000 -0.281426 0.637149 -6.347231 0.833370 -0.224968 -4.552880 1.287193 -4.379317 15.547748 0.000000 0.000000 0.000000 -0.694276 0.095593 -1.801102 3.212589 0.329550 -32.611578 -1.938071 -1.973711 28.320249 5.566221 -2.755059 -22.216868 0.000000 0.000000 0.000000 -12.477267 0.459513 -0.173071 -50.923094 -11.061812 -3.594575 -36.250680 -25.705031 10.593898 0.000000 0.000000 0.000000 -15.019590 3.342593 1.777398 -20.419992 52.499496 -14.135236 -103.845562 -3.364126 4.129299 0.000000 0.000000 0.000000 
0.013685 0.964700 0.004894 -3.029160 -3.480854 7.888149 5.664721 -0.272964 -3.550152 -3.412736 0.430925 -7.532817 3.308547 10.103639 14.973275 0.000000 0.000000 0.000000 -0.280402 0.609956 -6.077345 0.791907 -0.230709 -4.817442 1.373356 -4.284229 15.699159 0.000000 0.000000 0.000000 -0.650154 0.089132 -1.663403 3.087438 0.340385 -32.485598 -2.003270 -2.295962 28.468228 5.563109 -2.823043 -22.166183 0.000000 0.000000 0.000000 -12.362152 0.571247 -0.170947 -51.049083 -10.787214 -3.715880 -35.681204 -26.484036 10.789606 0.000000 0.000000 0.000000 -15.380032 3.186636 1.803416 -21.587976 51.454217 -14.349448 -103.640173 -4.980309 5.710995 0.000000 0.000000 0.000000 
0.013863 0.964820 0.004962 -2.987747 -3.533056 7.851765 5.548145 -0.269681 -3.468325 -3.417059 0.433179 -7.701694 3.446096 10.385945 15.450696 0.000000 0.000000 0.000000 -0.383922 0.591816 -5.903406 0.737125 -0.237357 -5.134776 1.462553 -4.266537 16.059730 0.000000 0.000000 0.000000 -0.715001 0.093927 -1.753523 3.088225 0.335701 -32.404622 -2.117872 -2.369427 28.810741 5.709229 -2.971026 -21.956644 0.000000 0.000000 0.000000 -12.183059 0.612238 -0.163179 -51.450028 -10.643663 -3.809209 -35.372722 -27.237383 11.044567 0.000000 0.000000 0.000000 -15.749263 2.856520 1.758304 -21.344829 50.660421 -13.973538 -103.541184 -5.577047 6.230226 0.000000 0.000000 0.000000 
0.014044 0.964600 0.005096 -3.075599 -3.668557 7.799156 5.602989 -0.262320 -3.365523 -3.381616 0.433764 -7.816374 3.641436 10.689688 15.618503 0.000000 0.000000 0.000000 -0.340657 0.565761 -5.642864 0.659673 -0.239988 -5.358956 1.442769 -4.376452 16.197724 0.000000 0.000000 0.000000 -0.774062 0.099627 -1.867091 3.113597 0.326482 -32.311240 -2.114985 -2.498306 29.056858 5.622308 -2.971781 -21.859219 0.000000 0.000000 0.000000 -12.145330 0.807683 -0.218148 -51.788866 -10.217200 -4.013099 -35.229044 -27.571699 11.181871 0.000000 0.000000 0.000000 -15.982177 2.732012 1.772567 -20.441368 49.965103 -13.389720 -104.081120 -5.518773 6.043445 0.000000 0.000000 0.000000 
